<svg width="1440" height="797" viewBox="0 0 1440 797" fill="none" xmlns="http://www.w3.org/2000/svg">
<path fill-rule="evenodd" clip-rule="evenodd" d="M281.5 0C280.672 0 280 0.671573 280 1.5C280 2.32843 280.672 3 281.5 3C282.328 3 283 2.32843 283 1.5C283 0.671573 282.328 0 281.5 0ZM571.5 10C570.672 10 570 10.6716 570 11.5C570 12.3284 570.672 13 571.5 13C572.328 13 573 12.3284 573 11.5C573 10.6716 572.328 10 571.5 10ZM0 15.5C0 14.6716 0.671573 14 1.5 14C2.32843 14 3 14.6716 3 15.5C3 16.3284 2.32843 17 1.5 17C0.671573 17 0 16.3284 0 15.5ZM412 29C413.657 29 415 27.6569 415 26C415 24.3431 413.657 23 412 23C410.343 23 409 24.3431 409 26C409 27.6569 410.343 29 412 29ZM1136 35C1134.34 35 1133 33.6569 1133 32C1133 30.3431 1134.34 29 1136 29C1137.66 29 1139 30.3431 1139 32C1139 33.6569 1137.66 35 1136 35ZM108 113C108 114.657 106.657 116 105 116C103.343 116 102 114.657 102 113C102 111.343 103.343 110 105 110C106.657 110 108 111.343 108 113ZM253 348C253 349.657 251.657 351 250 351C248.343 351 247 349.657 247 348C247 346.343 248.343 345 250 345C251.657 345 253 346.343 253 348ZM1206 305C1207.66 305 1209 303.657 1209 302C1209 300.343 1207.66 299 1206 299C1204.34 299 1203 300.343 1203 302C1203 303.657 1204.34 305 1206 305ZM1205 229C1205 230.657 1206.34 232 1208 232C1209.66 232 1211 230.657 1211 229C1211 227.343 1209.66 226 1208 226C1206.34 226 1205 227.343 1205 229ZM1351 540C1352.66 540 1354 538.657 1354 537C1354 535.343 1352.66 534 1351 534C1349.34 534 1348 535.343 1348 537C1348 538.657 1349.34 540 1351 540ZM181 545C181 546.657 179.657 548 178 548C176.343 548 175 546.657 175 545C175 543.343 176.343 542 178 542C179.657 542 181 543.343 181 545ZM280 513C281.657 513 283 511.657 283 510C283 508.343 281.657 507 280 507C278.343 507 277 508.343 277 510C277 511.657 278.343 513 280 513ZM777 566C777 567.657 775.657 569 774 569C772.343 569 771 567.657 771 566C771 564.343 772.343 563 774 563C775.657 563 777 564.343 777 566ZM1103 194C1103 195.657 1104.34 197 1106 197C1107.66 197 1109 195.657 1109 194C1109 192.343 1107.66 191 1106 191C1104.34 191 1103 192.343 1103 194ZM605 221.5C605 220.672 605.672 220 606.5 220C607.328 220 608 220.672 608 221.5C608 222.328 607.328 223 606.5 223C605.672 223 605 222.328 605 221.5ZM536.5 106C535.672 106 535 106.672 535 107.5C535 108.328 535.672 109 536.5 109C537.328 109 538 108.328 538 107.5C538 106.672 537.328 106 536.5 106ZM70 129.5C70 128.672 70.6716 128 71.5 128C72.3284 128 73 128.672 73 129.5C73 130.328 72.3284 131 71.5 131C70.6716 131 70 130.328 70 129.5ZM70.5 164C71.3284 164 72 164.672 72 165.5C72 166.328 71.3284 167 70.5 167C69.6716 167 69 166.328 69 165.5C69 164.672 69.6716 164 70.5 164ZM520 28.5C520 27.6716 520.672 27 521.5 27C522.328 27 523 27.6716 523 28.5C523 29.3284 522.328 30 521.5 30C520.672 30 520 29.3284 520 28.5ZM107 260.5C107 259.672 106.328 259 105.5 259C104.672 259 104 259.672 104 260.5C104 261.328 104.672 262 105.5 262C106.328 262 107 261.328 107 260.5ZM120.5 181C121.328 181 122 181.672 122 182.5C122 183.328 121.328 184 120.5 184C119.672 184 119 183.328 119 182.5C119 181.672 119.672 181 120.5 181ZM456 263.5C456 262.672 456.672 262 457.5 262C458.328 262 459 262.672 459 263.5C459 264.328 458.328 265 457.5 265C456.672 265 456 264.328 456 263.5ZM1.5 516C2.32843 516 3 516.672 3 517.5C3 518.328 2.32843 519 1.5 519C0.671573 519 0 518.328 0 517.5C0 516.672 0.671573 516 1.5 516ZM73 403.5C73 402.672 72.3284 402 71.5 402C70.6716 402 70 402.672 70 403.5C70 404.328 70.6716 405 71.5 405C72.3284 405 73 404.328 73 403.5ZM536.5 424C537.328 424 538 424.672 538 425.5C538 426.328 537.328 427 536.5 427C535.672 427 535 426.328 535 425.5C535 424.672 535.672 424 536.5 424ZM536 461.5C536 460.672 536.672 460 537.5 460C538.328 460 539 460.672 539 461.5C539 462.328 538.328 463 537.5 463C536.672 463 536 462.328 536 461.5ZM606.5 310C607.328 310 608 310.672 608 311.5C608 312.328 607.328 313 606.5 313C605.672 313 605 312.328 605 311.5C605 310.672 605.672 310 606.5 310ZM38 307.5C38 306.672 37.3284 306 36.5 306C35.6716 306 35 306.672 35 307.5C35 308.328 35.6716 309 36.5 309C37.3284 309 38 308.328 38 307.5ZM86.5 323C87.3284 323 88 323.672 88 324.5C88 325.328 87.3284 326 86.5 326C85.6716 326 85 325.328 85 324.5C85 323.672 85.6716 323 86.5 323ZM328 297.5C328 296.672 327.328 296 326.5 296C325.672 296 325 296.672 325 297.5C325 298.328 325.672 299 326.5 299C327.328 299 328 298.328 328 297.5ZM502.5 555C501.672 555 501 555.672 501 556.5C501 557.328 501.672 558 502.5 558C503.328 558 504 557.328 504 556.5C504 555.672 503.328 555 502.5 555ZM486 478.5C486 477.672 486.672 477 487.5 477C488.328 477 489 477.672 489 478.5C489 479.328 488.328 480 487.5 480C486.672 480 486 479.328 486 478.5ZM150.5 558C151.328 558 152 558.672 152 559.5C152 560.328 151.328 561 150.5 561C149.672 561 149 560.328 149 559.5C149 558.672 149.672 558 150.5 558ZM702 339.5C702 340.328 701.328 341 700.5 341C699.672 341 699 340.328 699 339.5C699 338.672 699.672 338 700.5 338C701.328 338 702 338.672 702 339.5ZM770.5 455C771.328 455 772 454.328 772 453.5C772 452.672 771.328 452 770.5 452C769.672 452 769 452.672 769 453.5C769 454.328 769.672 455 770.5 455ZM1237 431.5C1237 432.328 1236.33 433 1235.5 433C1234.67 433 1234 432.328 1234 431.5C1234 430.672 1234.67 430 1235.5 430C1236.33 430 1237 430.672 1237 431.5ZM1236.5 397C1235.67 397 1235 396.328 1235 395.5C1235 394.672 1235.67 394 1236.5 394C1237.33 394 1238 394.672 1238 395.5C1238 396.328 1237.33 397 1236.5 397ZM1307 545.5C1307 546.328 1306.33 547 1305.5 547C1304.67 547 1304 546.328 1304 545.5C1304 544.672 1304.67 544 1305.5 544C1306.33 544 1307 544.672 1307 545.5ZM735.5 551C736.328 551 737 550.328 737 549.5C737 548.672 736.328 548 735.5 548C734.672 548 734 548.672 734 549.5C734 550.328 734.672 551 735.5 551ZM787 532.5C787 533.328 786.328 534 785.5 534C784.672 534 784 533.328 784 532.5C784 531.672 784.672 531 785.5 531C786.328 531 787 531.672 787 532.5ZM1025.5 561C1026.33 561 1027 560.328 1027 559.5C1027 558.672 1026.33 558 1025.5 558C1024.67 558 1024 558.672 1024 559.5C1024 560.328 1024.67 561 1025.5 561ZM1200 300.5C1200 301.328 1200.67 302 1201.5 302C1202.33 302 1203 301.328 1203 300.5C1203 299.672 1202.33 299 1201.5 299C1200.67 299 1200 299.672 1200 300.5ZM1186.5 380C1185.67 380 1185 379.328 1185 378.5C1185 377.672 1185.67 377 1186.5 377C1187.33 377 1188 377.672 1188 378.5C1188 379.328 1187.33 380 1186.5 380ZM851 297.5C851 298.328 850.328 299 849.5 299C848.672 299 848 298.328 848 297.5C848 296.672 848.672 296 849.5 296C850.328 296 851 296.672 851 297.5ZM1438.5 45C1437.67 45 1437 44.3284 1437 43.5C1437 42.6716 1437.67 42 1438.5 42C1439.33 42 1440 42.6716 1440 43.5C1440 44.3284 1439.33 45 1438.5 45ZM1367 157.5C1367 158.328 1367.67 159 1368.5 159C1369.33 159 1370 158.328 1370 157.5C1370 156.672 1369.33 156 1368.5 156C1367.67 156 1367 156.672 1367 157.5ZM903.5 137C902.672 137 902 136.328 902 135.5C902 134.672 902.672 134 903.5 134C904.328 134 905 134.672 905 135.5C905 136.328 904.328 137 903.5 137ZM904 99.5C904 100.328 903.328 101 902.5 101C901.672 101 901 100.328 901 99.5C901 98.6716 901.672 98 902.5 98C903.328 98 904 98.6716 904 99.5ZM833.5 251C832.672 251 832 250.328 832 249.5C832 248.672 832.672 248 833.5 248C834.328 248 835 248.672 835 249.5C835 250.328 834.328 251 833.5 251ZM1402 253.5C1402 254.328 1402.67 255 1403.5 255C1404.33 255 1405 254.328 1405 253.5C1405 252.672 1404.33 252 1403.5 252C1402.67 252 1402 252.672 1402 253.5ZM1353.5 238C1352.67 238 1352 237.328 1352 236.5C1352 235.672 1352.67 235 1353.5 235C1354.33 235 1355 235.672 1355 236.5C1355 237.328 1354.33 238 1353.5 238ZM1112 263.5C1112 264.328 1112.67 265 1113.5 265C1114.33 265 1115 264.328 1115 263.5C1115 262.672 1114.33 262 1113.5 262C1112.67 262 1112 262.672 1112 263.5ZM937.5 6C938.328 6 939 5.32843 939 4.5C939 3.67157 938.328 3 937.5 3C936.672 3 936 3.67157 936 4.5C936 5.32843 936.672 6 937.5 6ZM954 82.5C954 83.3284 953.328 84 952.5 84C951.672 84 951 83.3284 951 82.5C951 81.6716 951.672 81 952.5 81C953.328 81 954 81.6716 954 82.5ZM1289.5 3C1288.67 3 1288 2.32843 1288 1.5C1288 0.671573 1288.67 0 1289.5 0C1290.33 0 1291 0.671573 1291 1.5C1291 2.32843 1290.33 3 1289.5 3Z" fill="#46485B"/>
<path fill-rule="evenodd" clip-rule="evenodd" d="M1440 650.205L1088.5 600L949.669 650.205L878 625.102L556 600L398.525 650.205L302.718 625.102L251.39 641.863L45.7037 600L0 617.701V760H1440V650.205Z" fill="#211A29"/>
<path fill-rule="evenodd" clip-rule="evenodd" d="M1394.3 601L1488.94 670.336L1538.99 620.887L1394.3 601Z" fill="#1A1823"/>
<path fill-rule="evenodd" clip-rule="evenodd" d="M1137.28 642.576L1188.61 670.335L1269.21 664.91L1137.28 642.576Z" fill="#1A1823"/>
<path fill-rule="evenodd" clip-rule="evenodd" d="M884 601L1041.47 684.151L1122.4 658.089L884 601Z" fill="#1A1823"/>
<path fill-rule="evenodd" clip-rule="evenodd" d="M351.496 601L490.331 684.151L539.652 655.625L351.496 601Z" fill="#1A1823"/>
<path fill-rule="evenodd" clip-rule="evenodd" d="M0 684.151L351.496 601L490.331 684.151L562 642.576L884 601L1041.47 684.151L1137.28 642.576L1188.61 670.336L1394.3 601L1440 630.317V866H0V684.151Z" fill="#2F2439"/>
</svg>
